<?xml version="1.0" encoding="UTF-8"?>
<svg xmlns="http://www.w3.org/2000/svg" width="1680" height="1180" viewBox="0 0 1680 1180" role="img" aria-labelledby="title desc">
  <title id="title">Unit311 Central Workspace Architecture</title>
  <desc id="desc">Visual representation of docs/WORKSPACE_ARCHITECTURE.md for the Unit311 Central Supabase project.</desc>
  <defs>
    <linearGradient id="bg" x1="0" y1="0" x2="1" y2="1">
      <stop offset="0%" stop-color="#07111F"/>
      <stop offset="55%" stop-color="#0b1e36"/>
      <stop offset="100%" stop-color="#102a4a"/>
    </linearGradient>
    <linearGradient id="panel" x1="0" y1="0" x2="0" y2="1">
      <stop offset="0%" stop-color="#12233a"/>
      <stop offset="100%" stop-color="#0d1a2d"/>
    </linearGradient>
    <marker id="arrow" markerWidth="10" markerHeight="10" refX="8" refY="3" orient="auto" markerUnits="strokeWidth">
      <path d="M0,0 L8,3 L0,6 Z" fill="#7dd3fc"/>
    </marker>
    <style>
      .title { fill: #f8fafc; font-family: "Segoe UI", "Helvetica Neue", Arial, sans-serif; font-size: 34px; font-weight: 700; }
      .subtitle { fill: #94a3b8; font-family: "Segoe UI", "Helvetica Neue", Arial, sans-serif; font-size: 15px; }
      .section-title { fill: #e2e8f0; font-family: "Segoe UI", "Helvetica Neue", Arial, sans-serif; font-size: 18px; font-weight: 700; }
      .body { fill: #cbd5e1; font-family: "Segoe UI", "Helvetica Neue", Arial, sans-serif; font-size: 13px; }
      .mono { fill: #bae6fd; font-family: ui-monospace, SFMono-Regular, Menlo, Consolas, monospace; font-size: 12px; }
      .label { fill: #93c5fd; font-family: "Segoe UI", "Helvetica Neue", Arial, sans-serif; font-size: 12px; font-weight: 600; letter-spacing: 0.04em; text-transform: uppercase; }
      .card-title { fill: #f8fafc; font-family: "Segoe UI", "Helvetica Neue", Arial, sans-serif; font-size: 16px; font-weight: 700; }
      .foundation-card { fill: #132f52; stroke: #38bdf8; stroke-width: 1.2; }
      .foundation-label { fill: #e0f2fe; font-family: ui-monospace, SFMono-Regular, Menlo, Consolas, monospace; font-size: 13px; font-weight: 600; }
      .chip-aware { fill: #12324f; stroke: #38bdf8; stroke-width: 1; }
      .chip-internal { fill: #3a1d24; stroke: #f87171; stroke-width: 1; }
      .chip-text { fill: #e2e8f0; font-family: ui-monospace, SFMono-Regular, Menlo, Consolas, monospace; font-size: 11px; }
      .panel { fill: url(#panel); stroke: rgba(148,163,184,0.35); stroke-width: 1.2; }
      .accent-panel { fill: #0f2944; stroke: #38bdf8; stroke-width: 1.5; }
      .warn-panel { fill: #2a1520; stroke: #f87171; stroke-width: 1.5; }
      .muted { fill: #64748b; font-family: "Segoe UI", "Helvetica Neue", Arial, sans-serif; font-size: 12px; }
    </style>
  </defs>

  <rect width="100%" height="100%" fill="url(#bg)"/>
  <circle cx="1500" cy="80" r="180" fill="#1d4ed8" opacity="0.12"/>
  <circle cx="120" cy="980" r="220" fill="#0ea5e9" opacity="0.08"/>

  <text x="56" y="58" class="title">Unit311 Central — Workspace Architecture</text>
  <text x="56" y="88" class="subtitle">Generated visual of docs/WORKSPACE_ARCHITECTURE.md · version 20260715T222921Z · 2026-07-15T22:29:21.829Z</text>
  <text x="56" y="112" class="muted">Markdown remains the technical specification. This diagram is a linked visual representation.</text>

  <!-- Single project -->
  <rect x="56" y="140" width="1568" height="96" rx="18" class="accent-panel"/>
  <text x="80" y="172" class="label">Production Supabase (single project)</text>
  <text x="80" y="200" class="card-title">Unit311 Central</text>
  <text x="80" y="222" class="mono">project_id = kkxtvzxqmbacjatkiupq · Do not create another production database for tenancy</text>

  <!-- Registry -->
  <rect x="56" y="268" width="520" height="200" rx="18" class="panel"/>
  <text x="80" y="302" class="label">Registry</text>
  <text x="80" y="332" class="card-title">workspaces</text>
  <text x="80" y="358" class="body">id · name · slug · workspace_type · status</text>
  <text x="80" y="382" class="body">No workspace_id on this table (it is the registry).</text>
  <text x="80" y="414" class="mono">lookup preferred by slug, not hardcoded UUID</text>

  <!-- Internal workspace -->
  <rect x="616" y="268" width="520" height="200" rx="18" class="accent-panel"/>
  <text x="640" y="302" class="label">Internal workspace</text>
  <text x="640" y="332" class="card-title">Unit311 Central</text>
  <text x="640" y="358" class="mono">slug = unit311</text>
  <text x="640" y="382" class="body">type Internal · status Active</text>
  <text x="640" y="414" class="mono">id cd5c37a5-add4-4a8b-830c-6d26b775f62c</text>

  <!-- Provision -->
  <rect x="1176" y="268" width="448" height="200" rx="18" class="panel"/>
  <text x="1200" y="302" class="label">Customer provisioning</text>
  <text x="1200" y="332" class="card-title">provision_workspace()</text>
  <text x="1200" y="362" class="body">Transactional: workspace + settings +</text>
<text x="1200" y="380" class="body">enabled modules from unit311 + default</text>
<text x="1200" y="398" class="body">folders/categories + audit log. Returns</text>
<text x="1200" y="416" class="body">workspace_id. No</text>
<text x="1200" y="434" class="body">users/auth/clients/emails.</text>

  <!-- Foundation -->
  <rect x="56" y="500" width="720" height="200" rx="18" class="panel"/>
  <text x="80" y="534" class="label">Workspace foundation tables</text>
  <text x="80" y="560" class="body">1:1 / 1:N children of workspaces (database foundation; app not consuming yet)</text>
  
        <rect x="80" y="580" width="320" height="44" rx="10" class="foundation-card"/>
        <text x="96" y="608" class="foundation-label">workspace_settings</text>
      

        <rect x="420" y="580" width="320" height="44" rx="10" class="foundation-card"/>
        <text x="436" y="608" class="foundation-label">workspace_modules</text>
      

        <rect x="80" y="634" width="320" height="44" rx="10" class="foundation-card"/>
        <text x="96" y="662" class="foundation-label">workspace_users</text>
      

        <rect x="420" y="634" width="320" height="44" rx="10" class="foundation-card"/>
        <text x="436" y="662" class="foundation-label">workspace_audit_log</text>
      

  <!-- Flow arrows -->
  <line x1="576" y1="368" x2="612" y2="368" stroke="#7dd3fc" stroke-width="2" marker-end="url(#arrow)"/>
  <line x1="1136" y1="368" x2="1172" y2="368" stroke="#7dd3fc" stroke-width="2" marker-end="url(#arrow)"/>
  <path d="M316 468 C316 488, 316 488, 416 498" fill="none" stroke="#7dd3fc" stroke-width="2" marker-end="url(#arrow)"/>

  <!-- Future customer note -->
  <rect x="816" y="500" width="808" height="200" rx="18" class="panel"/>
  <text x="840" y="534" class="label">Multi-workspace model</text>
  <text x="840" y="566" class="card-title">One database · many workspaces</text>
  <text x="840" y="598" class="body">1) Unit311 Central Internal operations 2) Customer workspaces isolated by</text>
<text x="840" y="618" class="body">workspace_id. Phase 1 prepared the database only — application code is not</text>
<text x="840" y="638" class="body">workspace-aware yet. Inserts omitting workspace_id still default to Internal.</text>
  <text x="840" y="670" class="mono">Future: resolveActiveWorkspace(slug | organisation | session) → Internal stays slug=unit311</text>

  <!-- Workspace-aware -->
  <rect x="56" y="728" width="860" height="300" rx="18" class="accent-panel"/>
  <text x="80" y="762" class="label">Workspace-aware tables (32)</text>
  <text x="80" y="786" class="body">workspace_id NOT NULL · FK → workspaces(id) · indexed · Phase 1 default = Internal</text>
  
            <rect x="100" y="808" width="175" height="28" rx="8" class="chip-aware"/>
            <text x="110" y="827" class="chip-text">accounts</text>
          

            <rect x="285" y="808" width="175" height="28" rx="8" class="chip-aware"/>
            <text x="295" y="827" class="chip-text">blog_posts</text>
          

            <rect x="470" y="808" width="175" height="28" rx="8" class="chip-aware"/>
            <text x="480" y="827" class="chip-text">client_onboarding_records</text>
          

            <rect x="655" y="808" width="175" height="28" rx="8" class="chip-aware"/>
            <text x="665" y="827" class="chip-text">competitors</text>
          

            <rect x="100" y="844" width="175" height="28" rx="8" class="chip-aware"/>
            <text x="110" y="863" class="chip-text">email_mailbox_credentials</text>
          

            <rect x="285" y="844" width="175" height="28" rx="8" class="chip-aware"/>
            <text x="295" y="863" class="chip-text">email_whatsapp_notification_log</text>
          

            <rect x="470" y="844" width="175" height="28" rx="8" class="chip-aware"/>
            <text x="480" y="863" class="chip-text">email_whatsapp_settings</text>
          

            <rect x="655" y="844" width="175" height="28" rx="8" class="chip-aware"/>
            <text x="665" y="863" class="chip-text">file_categories</text>
          

            <rect x="100" y="880" width="175" height="28" rx="8" class="chip-aware"/>
            <text x="110" y="899" class="chip-text">file_folders</text>
          

            <rect x="285" y="880" width="175" height="28" rx="8" class="chip-aware"/>
            <text x="295" y="899" class="chip-text">file_objects</text>
          

            <rect x="470" y="880" width="175" height="28" rx="8" class="chip-aware"/>
            <text x="480" y="899" class="chip-text">financial_expenses</text>
          

            <rect x="655" y="880" width="175" height="28" rx="8" class="chip-aware"/>
            <text x="665" y="899" class="chip-text">hr_employees</text>
          

            <rect x="100" y="916" width="175" height="28" rx="8" class="chip-aware"/>
            <text x="110" y="935" class="chip-text">internal_action_items</text>
          

            <rect x="285" y="916" width="175" height="28" rx="8" class="chip-aware"/>
            <text x="295" y="935" class="chip-text">internal_calendar_events</text>
          

            <rect x="470" y="916" width="175" height="28" rx="8" class="chip-aware"/>
            <text x="480" y="935" class="chip-text">internal_clients</text>
          

            <rect x="655" y="916" width="175" height="28" rx="8" class="chip-aware"/>
            <text x="665" y="935" class="chip-text">internal_info_email_messages</text>
          

            <rect x="100" y="952" width="175" height="28" rx="8" class="chip-aware"/>
            <text x="110" y="971" class="chip-text">internal_info_email_threads</text>
          

            <rect x="285" y="952" width="175" height="28" rx="8" class="chip-aware"/>
            <text x="295" y="971" class="chip-text">internal_projects</text>
          

            <rect x="470" y="952" width="175" height="28" rx="8" class="chip-aware"/>
            <text x="480" y="971" class="chip-text">internal_scheduled_calls</text>
          

            <rect x="655" y="952" width="175" height="28" rx="8" class="chip-aware"/>
            <text x="665" y="971" class="chip-text">internal_whiteboard</text>
          
  <text x="100" y="1012" class="muted">+ 12 more in docs/WORKSPACE_ARCHITECTURE.md</text>

  <!-- Internal-only -->
  <rect x="948" y="728" width="676" height="300" rx="18" class="warn-panel"/>
  <text x="972" y="762" class="label">Internal-only tables (9)</text>
  <text x="972" y="786" class="body">No workspace_id · never copy into customer workspaces</text>
  
            <rect x="980" y="808" width="275" height="28" rx="8" class="chip-internal"/>
            <text x="990" y="827" class="chip-text">crm_leads</text>
          

            <rect x="1270" y="808" width="275" height="28" rx="8" class="chip-internal"/>
            <text x="1280" y="827" class="chip-text">crm_activities</text>
          

            <rect x="980" y="844" width="275" height="28" rx="8" class="chip-internal"/>
            <text x="990" y="863" class="chip-text">crm_contact_history</text>
          

            <rect x="1270" y="844" width="275" height="28" rx="8" class="chip-internal"/>
            <text x="1280" y="863" class="chip-text">crm_connections</text>
          

            <rect x="980" y="880" width="275" height="28" rx="8" class="chip-internal"/>
            <text x="990" y="899" class="chip-text">founder_session_bookings</text>
          

            <rect x="1270" y="880" width="275" height="28" rx="8" class="chip-internal"/>
            <text x="1280" y="899" class="chip-text">internal_message_channels</text>
          

            <rect x="980" y="916" width="275" height="28" rx="8" class="chip-internal"/>
            <text x="990" y="935" class="chip-text">internal_messages</text>
          

            <rect x="1270" y="916" width="275" height="28" rx="8" class="chip-internal"/>
            <text x="1280" y="935" class="chip-text">internal_message_read_state</text>
          

            <rect x="980" y="952" width="275" height="28" rx="8" class="chip-internal"/>
            <text x="990" y="971" class="chip-text">internal_operators</text>
          
  <text x="980" y="1012" class="muted">CRM · Discovery · Contact Forms · Internal Messaging · Staff</text>

  <!-- Footer status -->
  <rect x="56" y="1056" width="1568" height="92" rx="16" class="panel"/>
  <text x="80" y="1090" class="label">Current status (from specification)</text>
  <text x="80" y="1118" class="body">workspaces registry: Live · Internal workspace unit311: Live · workspace_id on workspace-aware tables: Live, NOT NULL, indexed, FK’d · Existing rows backfilled:</text>
<text x="80" y="1136" class="body">Complete (zero nulls) · Inserts without workspace_id: Still work via DB default → Internal · workspace_settings: Live + Internal seeded</text>
</svg>
