<?xml version="1.0" encoding="UTF-8"?>
<svg xmlns="http://www.w3.org/2000/svg" width="1780" height="1380" viewBox="0 0 1780 1380" role="img" aria-labelledby="title desc">
  <title id="title">Unit311 Central GitHub Repository Architecture</title>
  <desc id="desc">Generated from docs/GITHUB_ARCHITECTURE.md - repository structure, App Router, modules, migrations, and hygiene.</desc>
  <defs>
    <linearGradient id="bg" x1="0" y1="0" x2="1" y2="1">
      <stop offset="0%" stop-color="#050b14"/>
      <stop offset="50%" stop-color="#0a1628"/>
      <stop offset="100%" stop-color="#10233d"/>
    </linearGradient>
    <linearGradient id="panel" x1="0" y1="0" x2="0" y2="1">
      <stop offset="0%" stop-color="#12233a"/>
      <stop offset="100%" stop-color="#0d1a2d"/>
    </linearGradient>
    <style>
      .title { fill: #f8fafc; font-family: "Segoe UI", "Helvetica Neue", Arial, sans-serif; font-size: 32px; font-weight: 700; }
      .subtitle { fill: #94a3b8; font-family: "Segoe UI", "Helvetica Neue", Arial, sans-serif; font-size: 14px; }
      .label { fill: #93c5fd; font-family: "Segoe UI", "Helvetica Neue", Arial, sans-serif; font-size: 12px; font-weight: 700; letter-spacing: 0.05em; text-transform: uppercase; }
      .card-title { fill: #f8fafc; font-family: "Segoe UI", "Helvetica Neue", Arial, sans-serif; font-size: 18px; font-weight: 700; }
      .body { fill: #cbd5e1; font-family: "Segoe UI", "Helvetica Neue", Arial, sans-serif; font-size: 13px; }
      .mono { fill: #bae6fd; font-family: ui-monospace, SFMono-Regular, Menlo, Consolas, monospace; font-size: 12px; }
      .muted { fill: #64748b; font-family: "Segoe UI", "Helvetica Neue", Arial, sans-serif; font-size: 11px; }
      .panel { fill: url(#panel); stroke: rgba(148,163,184,0.35); stroke-width: 1.2; }
      .accent { fill: #0f2944; stroke: #38bdf8; stroke-width: 1.5; }
      .warn { fill: #1a2740; stroke: #a5b4fc; stroke-width: 1.5; }
      .chip { fill: #12324f; stroke: #38bdf8; stroke-width: 1; }
    </style>
  </defs>

  <rect width="100%" height="100%" fill="url(#bg)"/>
  <circle cx="1600" cy="80" r="200" fill="#1d4ed8" opacity="0.12"/>
  <circle cx="120" cy="1220" r="220" fill="#0ea5e9" opacity="0.08"/>

  <text x="56" y="52" class="title">Unit311 Central - GitHub Repository Architecture</text>
  <text x="56" y="80" class="subtitle">Generated from docs/GITHUB_ARCHITECTURE.md | version 20260716T000727Z | 2026-07-16T00:07:27.239Z</text>
  <text x="56" y="104" class="muted">Markdown is the specification. SVG/PNG under public/architecture/ are regenerated by code - do not hand-edit.</text>

  <rect x="56" y="128" width="1668" height="92" rx="18" class="accent"/>
  <text x="80" y="160" class="label">Repository identity / branch / deployment targets</text>
  <text x="80" y="188" class="card-title">unit311 | default branch main</text>
  <text x="80" y="208" class="mono">https://github.com/paulwfotheringham-cmd/unit311.git | Vercel unit311central | Supabase Unit311 Central (kkxtvzxqmbacjatkiupq)</text>

  <rect x="56" y="244" width="1668" height="170" rx="18" class="panel"/>
  <text x="80" y="276" class="label">Repository structure</text>
  
        <rect x="80" y="292" width="395" height="40" rx="10" class="chip"/>
        <text x="92" y="309" class="mono">src/app/</text>
        <text x="92" y="325" class="muted">Next.js App Router (pages, layouts, API ro</text>
      

        <rect x="490" y="292" width="395" height="40" rx="10" class="chip"/>
        <text x="502" y="309" class="mono">src/components/</text>
        <text x="502" y="325" class="muted">React UI (marketing + Internal ops)</text>
      

        <rect x="900" y="292" width="395" height="40" rx="10" class="chip"/>
        <text x="912" y="309" class="mono">src/lib/</text>
        <text x="912" y="325" class="muted">Domain services, integrations, host helper</text>
      

        <rect x="1310" y="292" width="395" height="40" rx="10" class="chip"/>
        <text x="1322" y="309" class="mono">src/hooks/, src/types/</text>
        <text x="1322" y="325" class="muted">Shared hooks and TypeScript types</text>
      

        <rect x="80" y="340" width="395" height="40" rx="10" class="chip"/>
        <text x="92" y="357" class="mono">src/middleware.ts</text>
        <text x="92" y="373" class="muted">Host-based routing (apex / internal / work</text>
      

        <rect x="490" y="340" width="395" height="40" rx="10" class="chip"/>
        <text x="502" y="357" class="mono">supabase/migrations/</text>
        <text x="502" y="373" class="muted">Canonical SQL migration history</text>
      

        <rect x="900" y="340" width="395" height="40" rx="10" class="chip"/>
        <text x="912" y="357" class="mono">scripts/</text>
        <text x="912" y="373" class="muted">Ops, seed, provision, diagram generation</text>
      

        <rect x="1310" y="340" width="395" height="40" rx="10" class="chip"/>
        <text x="1322" y="357" class="mono">public/</text>
        <text x="1322" y="373" class="muted">Static assets served as-is</text>
      

        <rect x="80" y="388" width="395" height="40" rx="10" class="chip"/>
        <text x="92" y="405" class="mono">docs/</text>
        <text x="92" y="421" class="muted">Deep technical specifications</text>
      

        <rect x="490" y="388" width="395" height="40" rx="10" class="chip"/>
        <text x="502" y="405" class="mono">mobile/</text>
        <text x="502" y="421" class="muted">Optional Capacitor shell</text>
      

        <rect x="900" y="388" width="395" height="40" rx="10" class="chip"/>
        <text x="912" y="405" class="mono">.github/workflows/</text>
        <text x="912" y="421" class="muted">CI (for example Android APK build)</text>
      

        <rect x="1310" y="388" width="395" height="40" rx="10" class="chip"/>
        <text x="1322" y="405" class="mono">Root docs</text>
        <text x="1322" y="421" class="muted">README.md, ARCHITECTURE.md, DEPLOYMENT.md,</text>
      

  
    <rect x="56" y="440" width="540" height="250" rx="16" class="accent"/>
    <text x="72" y="472" class="label">App Router</text>
    <text x="72" y="498" class="body">Marketing site: src/app/page.tsx, about, contact, industri</text>
<text x="72" y="520" class="body">Auth: src/app/login, signup, resetpassword, …</text>
<text x="72" y="542" class="body">Internal dashboard: src/app/(survey-operations)/internalda</text>
<text x="72" y="564" class="body">Workspace gateway: src/app/ws/[slug]</text>
<text x="72" y="586" class="body">HTTP APIs: src/app/api/**</text>
<text x="72" y="608" class="body">Book / meet / payment: src/app/book, meet, payment*, …</text>
  
  
    <rect x="620" y="440" width="540" height="250" rx="16" class="panel"/>
    <text x="636" y="472" class="label">Components</text>
    <text x="636" y="498" class="body">Marketing / home: src/components/home, layout, sections</text>
<text x="636" y="520" class="body">Auth: src/components/auth</text>
<text x="636" y="542" class="body">Internal modules: src/components/testflighthub/</text>
<text x="636" y="564" class="body">Client platform: src/components/client-platform</text>
<text x="636" y="586" class="body">Shared UI: src/components/ui</text>
<text x="636" y="608" class="body">Payments / onboarding: src/components/payment, onboarding,</text>
  
  
    <rect x="1184" y="440" width="540" height="250" rx="16" class="warn"/>
    <text x="1200" y="472" class="label">lib</text>
    <text x="1200" y="498" class="body">Host / domains: src/lib/app-domains.ts, workspace host hel</text>
<text x="1200" y="520" class="body">Supabase clients: src/lib/supabase/**</text>
<text x="1200" y="542" class="body">CRM / financials / HR / messaging: Matching *-service.ts /</text>
<text x="1200" y="564" class="body">Integrations: Zoho mail, Wise, WhatsApp, AI Gateway helper</text>
<text x="1200" y="586" class="body">Diagram generators: *-architecture-diagram.ts (parse markd</text>
<text x="1200" y="608" class="body">Auth / platform users: Platform signup, password, session </text>
  

  
    <rect x="56" y="716" width="540" height="230" rx="16" class="accent"/>
    <text x="72" y="748" class="label">Supabase + migrations</text>
    <text x="72" y="774" class="body">Migrations path: supabase/migrations/</text>
<text x="72" y="796" class="body">Naming: NNN_description.sql sequential files</text>
<text x="72" y="818" class="body">Client code: src/lib/supabase/** + API routes</text>
<text x="72" y="840" class="body">Tenancy model: Single project; workspaces + workspace_id</text>
<text x="72" y="862" class="body">Spec: docs/WORKSPACE_ARCHITECTURE.md</text>
<text x="72" y="884" class="body">Rule: Do not create a second production database for custo</text>
  
  
    <rect x="620" y="716" width="540" height="230" rx="16" class="panel"/>
    <text x="636" y="748" class="label">Middleware + public + env</text>
    <text x="636" y="774" class="body">File: src/middleware.ts</text>
<text x="636" y="796" class="body">Helpers: src/lib/app-domains.ts</text>
<text x="636" y="818" class="body">Apex: Public marketing + /login</text>
<text x="636" y="840" class="body">public/architecture/ generated diagrams</text>
<text x="636" y="862" class="body">.env.example committed; secrets gitignored</text>
<text x="636" y="884" class="body">scripts/ ops helpers (no secret dumps)</text>
  
  
    <rect x="1184" y="716" width="540" height="230" rx="16" class="panel"/>
    <text x="1200" y="748" class="label">Documentation</text>
    <text x="1200" y="774" class="body">README.md</text>
<text x="1200" y="796" class="body">ARCHITECTURE.md</text>
<text x="1200" y="818" class="body">DEPLOYMENT.md</text>
<text x="1200" y="840" class="body">CONTRIBUTING.md</text>
<text x="1200" y="862" class="body">docs/WORKSPACE_ARCHITECTURE.md</text>
<text x="1200" y="884" class="body">docs/VERCEL_ARCHITECTURE.md</text>
<text x="1200" y="906" class="body">docs/GITHUB_ARCHITECTURE.md</text>
  

  
    <rect x="56" y="972" width="540" height="230" rx="16" class="accent"/>
    <text x="72" y="1004" class="label">Internal modules</text>
    <text x="72" y="1030" class="body">Unit311 Details → Unit311DetailsWorkspace + unit311-detail</text>
<text x="72" y="1052" class="body">CRM / Discovery → Internal-only tables and CRM workspaces</text>
<text x="72" y="1074" class="body">Financials / Wise / expenses → Financial services + Intern</text>
<text x="72" y="1096" class="body">Messaging / email → Internal messaging + Zoho mail workspa</text>
<text x="72" y="1118" class="body">HR / careers / training → HR and QMS-related Internal view</text>
<text x="72" y="1140" class="body">Files / board packs / EA → File repository and executive a</text>
<text x="72" y="1162" class="body">Host note → Served on internal.unit311central.com</text>
  
  
    <rect x="620" y="972" width="540" height="230" rx="16" class="warn"/>
    <text x="636" y="1004" class="label">Customer modules</text>
    <text x="636" y="1030" class="body">Workspace gateway → src/app/ws/[slug]</text>
<text x="636" y="1052" class="body">Client platform UI → src/components/client-platform</text>
<text x="636" y="1074" class="body">Onboarding / questions → src/app/questions, onboarding com</text>
<text x="636" y="1096" class="body">Provisioning → provision_workspace() (database) + future s</text>
<text x="636" y="1118" class="body">Status → Host routing + placeholders ready; full customer </text>
  
  
    <rect x="1184" y="972" width="540" height="230" rx="16" class="panel"/>
    <text x="1200" y="1004" class="label">Build / branch / hygiene</text>
    <text x="1200" y="1030" class="body">Install: npm install</text>
<text x="1200" y="1052" class="body">Dev server: npm run dev</text>
<text x="1200" y="1074" class="body">Lint: npm run lint</text>
<text x="1200" y="1096" class="body">Default branch: main</text>
<text x="1200" y="1118" class="body">Feature work: Branch from main; open small focused PRs</text>
<text x="1200" y="1140" class="body">Secrets: Never commit decrypted env, tokens, or private ke</text>
<text x="1200" y="1162" class="body">Scope: Change only what the task requires</text>
  

  <rect x="56" y="1228" width="1668" height="120" rx="14" class="panel"/>
  <text x="80" y="1260" class="label">Current status / product</text>
  <text x="80" y="1286" class="card-title">Unit311 Central (single-repo multi-tenant SaaS)</text>
  <text x="80" y="1314" class="body">Single GitHub repo unit311: Canonical · Default branch main: Production line · App Router + middleware: Active · Internal modules under testflighthub: Active · Customer</text>
<text x="80" y="1332" class="body">workspace host gateway: Active (placeholders) · Migrations under supabase/migrations/: Active · Generated architecture diagrams: Active (regenerate from docs) · Full</text>
<text x="80" y="1350" class="body">customer product modules: Future</text>
</svg>
